<?xml version="1.0" encoding="iso-8859-1"?>
<!-- Generator: Adobe Illustrator 19.2.0, SVG Export Plug-In . SVG Version: 6.00 Build 0)  -->
<svg version="1.1" id="Layer_1" xmlns="http://www.w3.org/2000/svg" xmlns:xlink="http://www.w3.org/1999/xlink" x="0px" y="0px"
	 viewBox="0 0 40 40" style="enable-background:new 0 0 40 40;" xml:space="preserve">
<g>
	<polygon style="fill:#FFEEA3;" points="10.874,18.5 20,2.986 29.126,18.5 	"/>
	<g>
		<path style="fill:#BA9B48;" d="M20,3.972L28.252,18H11.748L20,3.972 M20,2L10,19h20L20,2L20,2z"/>
	</g>
</g>
<g>
	<polygon style="fill:#FFEEA3;" points="0.874,35.5 10,19.986 19.126,35.5 	"/>
	<g>
		<path style="fill:#BA9B48;" d="M10,20.972L18.252,35H1.748L10,20.972 M10,19L0,36h20L10,19L10,19z"/>
	</g>
</g>
<g>
	<polygon style="fill:#FFEEA3;" points="20.874,35.5 30,19.986 39.126,35.5 	"/>
	<g>
		<path style="fill:#BA9B48;" d="M30,20.972L38.252,35H21.748L30,20.972 M30,19L20,36h20L30,19L30,19z"/>
	</g>
</g>
</svg>
